<?xml version="1.0" encoding="UTF-8"?>
<svg version="1.1" xmlns="http://www.w3.org/2000/svg" width="135" height="132">
<path d="M0 0 C3.54740165 2.80504555 6.79821046 5.80888309 10 9 C10.7115625 9.68835938 11.423125 10.37671875 12.15625 11.0859375 C23.48973934 22.81173993 28.61175579 38.35569416 28.375 54.4375 C28.36412354 55.4473999 28.35324707 56.4572998 28.34204102 57.49780273 C27.97534593 74.64667908 21.92939511 89.16662892 9.81640625 101.3125 C-4.09307778 114.58535022 -19.85417724 121.61713525 -39.1875 121.5 C-40.27885254 121.49500488 -41.37020508 121.49000977 -42.49462891 121.48486328 C-60.88989141 121.09093136 -75.97871943 113.9778763 -89 101 C-89.7115625 100.31164062 -90.423125 99.62328125 -91.15625 98.9140625 C-103.65459415 85.98308336 -107.5979864 69.61411029 -107.47827148 52.14111328 C-107.05727071 34.52947322 -100.18575057 20.27518303 -88.125 7.5625 C-64.50252186 -14.67470936 -27.02436778 -18.47712588 0 0 Z M-88 16 C-98.89013239 29.68062887 -102.98387654 44.63640114 -102 62 C-99.75962194 78.42311035 -91.40064928 92.02513946 -78.9921875 102.79296875 C-64.9646525 113.13964927 -48.36627846 117.81896434 -31 116 C-12.24840804 112.70076364 2.33797219 103.62636163 13.54296875 88.3046875 C16.22077761 84.06901129 18.21507917 79.67479265 20 75 C20.32097656 74.17113281 20.64195313 73.34226562 20.97265625 72.48828125 C26.01799349 57.16453605 23.43045505 40.42642858 16.3125 26.25 C12.94547686 20.47674567 8.69761959 15.72269585 4 11 C3.48179688 10.44699219 2.96359375 9.89398438 2.4296875 9.32421875 C-8.33383031 -1.12935483 -24.75431989 -5.93496868 -39.3125 -6.4375 C-58.29216894 -5.96838357 -75.41891241 1.58974719 -88 16 Z " fill="#000000" transform="translate(107,11)"/>
<path d="M0 0 C2.8992226 0.46761655 3.86675182 0.86675182 6 3 C6.41660854 8.62421526 5.00717252 11.3463829 1.39746094 15.70361328 C0.03326796 17.27419883 -1.35560325 18.81952101 -2.75 20.36328125 C-5.15942926 22.85285717 -5.15942926 22.85285717 -6 26 C0.63443921 24.76408894 4.00158056 21.70956182 8.6875 17 C9.979056 15.72508446 11.27450175 14.45409475 12.57421875 13.1875 C13.13713623 12.62417969 13.70005371 12.06085937 14.2800293 11.48046875 C16.1246069 9.89274432 17.7336016 8.88575089 20 8 C23.25 8.375 23.25 8.375 26 9 C26 10.32 26 11.64 26 13 C25.3709375 13.29132812 24.741875 13.58265625 24.09375 13.8828125 C18.20030273 16.70527671 13.06949732 19.87926336 8 24 C8.66 24.99 9.32 25.98 10 27 C9.3203125 29.06640625 9.3203125 29.06640625 8.125 31.5625 C4.9405485 39.49157052 5.66785341 47.61329863 6 56 C7.32 55.01 8.64 54.02 10 53 C9.01 52.505 9.01 52.505 8 52 C7.6953125 49.25 7.6953125 49.25 8 46 C10.1171875 43.875 10.1171875 43.875 12.875 42 C17.17364955 39.06075244 18.74078705 37.09474666 20 32 C14.49834802 33.163811 12.24351086 34.43505879 9 39 C8.34 39 7.68 39 7 39 C7.89542465 33.62745211 8.95828907 30.61247091 13.3125 27.25 C15.58781684 25.72525448 16.97131547 25.00600374 19.6875 24.4375 C22.92561923 25.22515062 24.05718157 26.29393148 26 29 C27.0625 32.375 27.0625 32.375 27 36 C25.57511467 38.32966042 23.90717305 40.00200918 22 42 C21.67 42.99 21.34 43.98 21 45 C21.66 45 22.32 45 23 45 C22.65120368 48.25543229 21.97866739 49.01873107 19.4375 51.25 C18.633125 51.8275 17.82875 52.405 17 53 C18.60875 52.9071875 18.60875 52.9071875 20.25 52.8125 C24 53 24 53 26.375 54.1875 C28.57362546 56.63981301 29 57.66824438 29 61 C27.49881285 65.32829594 25.53865563 69.19201656 23 73 C22.505 74.485 22.505 74.485 22 76 C17.96311899 78.27685676 13.49606077 79.99105355 8.8203125 80.0078125 C7 79.5 7 79.5 4 77 C0.10962224 67.38932606 -0.15912585 56.72747473 -0.0625 46.5 C-0.05798828 45.5821875 -0.05347656 44.664375 -0.04882812 43.71875 C-0.03716326 41.47909609 -0.02079614 39.23958455 0 37 C-4.1892913 43.45617572 -3.43475968 50.32764907 -3.43945312 57.79492188 C-3.61068772 67.141969 -5.53137984 75.78015108 -11.5625 83.1875 C-12.14128906 83.92355469 -12.72007813 84.65960938 -13.31640625 85.41796875 C-15 87 -15 87 -18 87 C-19.32 84.03 -20.64 81.06 -22 78 C-20.948125 78 -19.89625 78 -18.8125 78 C-14.73153426 76.92958276 -14.32762546 76.69411674 -12.1875 73.375 C-8.30631287 66.1852599 -7.55168722 59.02850092 -7 51 C-8.43820494 52.1449484 -9.87550532 53.29103301 -11.3125 54.4375 C-12.22644531 55.16453125 -13.14039062 55.8915625 -14.08203125 56.640625 C-15.99601968 58.18821404 -17.8902876 59.76058516 -19.76171875 61.359375 C-25.50874237 66.24557482 -31.06440115 70.00610809 -38 73 C-33.82493723 63.68639844 -25.1177578 55.76306268 -18.43041992 48.12768555 C-16.94388334 46.42656476 -15.47008857 44.71533015 -14 43 C-13.39285156 42.30261719 -12.78570312 41.60523438 -12.16015625 40.88671875 C-10.67405073 38.46992088 -10.49777553 36.56618806 -10.3125 33.75 C-10.24675781 32.85796875 -10.18101563 31.9659375 -10.11328125 31.046875 C-10.07589844 30.37140625 -10.03851563 29.6959375 -10 29 C-12.73026806 30.77467424 -15.40162829 32.51525848 -17.93359375 34.56640625 C-22.36177609 38.14865902 -25.27115819 39.76129826 -31 40 C-32.37064589 35.27888636 -32.30265074 30.71705207 -31 26 C-27.92210248 20.70435814 -23.51343164 17.46135341 -18 15 C-13.80523694 14.51598888 -12.55657038 14.62895308 -9 17 C-8.51080078 16.02160156 -8.51080078 16.02160156 -8.01171875 15.0234375 C-7.11119788 13.22239576 -6.21013605 11.42162441 -5.30859375 9.62109375 C-4.28142546 7.56369099 -3.26388537 5.50148093 -2.25 3.4375 C-1 1 -1 1 0 0 Z M-17 19 C-22.19053976 21.59526988 -25.35508166 23.60436659 -28 29 C-28.33524876 32.75129837 -28.33524876 32.75129837 -28 36 C-22.66620008 33.27867351 -17.38887013 30.0833052 -14 25 C-14.26763453 22.01141445 -14.84394686 21.15605314 -17 19 Z M11.625 61 C10.56539062 61.37125 9.50578125 61.7425 8.4140625 62.125 C7.61742187 62.41375 6.82078125 62.7025 6 63 C6.33 65.64 6.66 68.28 7 71 C9.27962442 70.29232267 11.54612029 69.56051695 13.8125 68.8125 C14.45509766 68.61591797 15.09769531 68.41933594 15.75976562 68.21679688 C19.05846761 67.10583507 20.81510739 66.24195366 22.94921875 63.44921875 C24.13142435 61.13785396 24.13142435 61.13785396 24 59 C19.40907294 58.77941492 15.94544748 59.4638409 11.625 61 Z " fill="#000000" transform="translate(53,14)"/>
<path d="M0 0 C0.66 1.65 1.32 3.3 2 5 C-7.41002278 11.33485194 -7.41002278 11.33485194 -12 14 C-11.67 16.97 -11.34 19.94 -11 23 C-9.96875 22.649375 -8.9375 22.29875 -7.875 21.9375 C-3.95950258 20.99020224 -1.82512341 20.8698499 2 22 C4.84250579 24.25440115 5.86771557 26.12767155 6.4140625 29.73046875 C6.89518796 37.61558046 5.85015633 42.58660173 1.8125 49.3125 C1.42594238 49.96436279 1.03938477 50.61622559 0.64111328 51.2878418 C-1.25435206 54.20998496 -2.43939135 55.81625797 -5.80078125 56.91796875 C-6.52652344 56.94503906 -7.25226563 56.97210938 -8 57 C-8.66 55.68 -9.32 54.36 -10 53 C-9.98428955 53.61407715 -9.9685791 54.2281543 -9.95239258 54.86083984 C-9.88923806 57.69879589 -9.85075823 60.53660333 -9.8125 63.375 C-9.78736328 64.34050781 -9.76222656 65.30601563 -9.73632812 66.30078125 C-9.66849395 73.03897584 -10.68859978 78.6712281 -13 85 C-13.66 85 -14.32 85 -15 85 C-15.73737628 81.64113297 -16.16753808 78.43411068 -16.31640625 75 C-16.35838135 74.03964844 -16.40035645 73.07929687 -16.44360352 72.08984375 C-16.48283936 71.07019531 -16.5220752 70.05054687 -16.5625 69 C-16.6049585 67.94941406 -16.64741699 66.89882812 -16.69116211 65.81640625 C-17.074278 55.54242516 -17.09636852 45.27930879 -17 35 C-20.465 35.495 -20.465 35.495 -24 36 C-24.33 41.61 -24.66 47.22 -25 53 C-25.99 52.67 -26.98 52.34 -28 52 C-30.33872439 44.98382682 -31.0074472 34.79881661 -28.09472656 27.8359375 C-25.57450275 23.46783506 -22.3595438 19.73620152 -19 16 C-18.0511587 14.87515104 -17.10696094 13.74636494 -16.16796875 12.61328125 C-15.45253906 11.75089844 -14.73710938 10.88851562 -14 10 C-15.35544922 10.16048828 -15.35544922 10.16048828 -16.73828125 10.32421875 C-17.91777344 10.44410156 -19.09726563 10.56398438 -20.3125 10.6875 C-21.48425781 10.81511719 -22.65601562 10.94273438 -23.86328125 11.07421875 C-27 11 -27 11 -28.91796875 9.51953125 C-29.27503906 9.01808594 -29.63210937 8.51664063 -30 8 C-27.6598108 5.26150086 -25.80629911 4.4302165 -22.32421875 3.61328125 C-20.95813477 3.2894043 -20.95813477 3.2894043 -19.56445312 2.95898438 C-18.61505859 2.74564453 -17.66566406 2.53230469 -16.6875 2.3125 C-15.74970703 2.08755859 -14.81191406 1.86261719 -13.84570312 1.63085938 C-9.15224486 0.54266503 -4.85257434 -0.30074581 0 0 Z M-18 20 C-19.36176581 21.98075027 -20.69593116 23.98079663 -22 26 C-21.67 26.66 -21.34 27.32 -21 28 C-19.68 27.67 -18.36 27.34 -17 27 C-17 24.69 -17 22.38 -17 20 C-17.33 20 -17.66 20 -18 20 Z M-5.140625 29.3359375 C-7.8179067 30.65474663 -9.21977548 31.56278786 -11 34 C-11.71517916 39.41260591 -11.45914228 44.57319334 -11 50 C-6.13838961 49.78234357 -6.13838961 49.78234357 -2.22265625 47.25 C0.73945972 41.50529025 1.51271115 37.46016054 1 31 C-1.26685131 29.58066517 -2.45314784 28.91418014 -5.140625 29.3359375 Z " fill="#000000" transform="translate(112,29)"/>
</svg>
